<?xml version="1.0" encoding="UTF-8" standalone="no"?>
<!-- Created with Inkscape (http://www.inkscape.org/) -->

<svg
   xmlns:dc="http://purl.org/dc/elements/1.1/"
   xmlns:cc="http://creativecommons.org/ns#"
   xmlns:rdf="http://www.w3.org/1999/02/22-rdf-syntax-ns#"
   xmlns:svg="http://www.w3.org/2000/svg"
   xmlns="http://www.w3.org/2000/svg"
   xmlns:sodipodi="http://sodipodi.sourceforge.net/DTD/sodipodi-0.dtd"
   xmlns:inkscape="http://www.inkscape.org/namespaces/inkscape"
   sodipodi:docname="New document 1"
   inkscape:version="0.48.5 r10040"
   version="1.1"
   id="svg2"
   height="1124.2845"
   width="593.39417">
  <sodipodi:namedview
     id="base"
     pagecolor="#ffffff"
     bordercolor="#666666"
     borderopacity="1.0"
     inkscape:pageopacity="0.0"
     inkscape:pageshadow="2"
     inkscape:zoom="0.7"
     inkscape:cx="-9.9983144"
     inkscape:cy="538.59891"
     inkscape:document-units="px"
     inkscape:current-layer="layer1"
     showgrid="false"
     inkscape:window-width="1920"
     inkscape:window-height="1136"
     inkscape:window-x="0"
     inkscape:window-y="25"
     inkscape:window-maximized="1"
     fit-margin-top="0"
     fit-margin-left="0"
     fit-margin-right="0"
     fit-margin-bottom="0" />
  <defs
     id="defs4" />
  <metadata
     id="metadata7">
    <rdf:RDF>
      <cc:Work
         rdf:about="">
        <dc:format>image/svg+xml</dc:format>
        <dc:type
           rdf:resource="http://purl.org/dc/dcmitype/StillImage" />
        <dc:title></dc:title>
      </cc:Work>
    </rdf:RDF>
  </metadata>
  <g
     id="layer1"
     inkscape:groupmode="layer"
     inkscape:label="Layer 1"
     transform="translate(-54.285706,39.065184)">
    <path
       d="m 472.7514,285.6564 c 0,63.04178 -51.10546,114.14724 -114.14724,114.14724 -63.04178,0 -114.14724,-51.10546 -114.14724,-114.14724 0,-63.04178 51.10546,-114.14724 114.14724,-114.14724 63.04178,0 114.14724,51.10546 114.14724,114.14724 z"
       sodipodi:ry="114.14724"
       sodipodi:rx="114.14724"
       sodipodi:cy="285.6564"
       sodipodi:cx="358.60416"
       id="path2985"
       style="fill:#e7e7e7;fill-opacity:1;stroke:#000000;stroke-width:3;stroke-miterlimit:4;stroke-opacity:1;stroke-dasharray:none"
       sodipodi:type="arc"
       transform="translate(-10,40)" />
    <path
       sodipodi:type="arc"
       style="fill:#000000;fill-opacity:0.65753425;fill-rule:evenodd;stroke:none"
       id="path4795"
       sodipodi:cx="344.28571"
       sodipodi:cy="1013.0765"
       sodipodi:rx="290"
       sodipodi:ry="72.14286"
       d="m 634.28571,1013.0765 c 0,39.8434 -129.83743,72.1428 -290,72.1428 -160.16258,0 -290.000004,-32.2994 -290.000004,-72.1428 0,-39.84342 129.837424,-72.14288 290.000004,-72.14288 160.16257,0 290,32.29946 290,72.14288 z" />
    <path
       transform="translate(-11.530097,-43.481163)"
       d="m 309.10668,998.8241 c 0,23.9893 -33.46729,43.4366 -74.75129,43.4366 -41.28399,0 -74.75129,-19.4473 -74.75129,-43.4366 0,-23.98935 33.4673,-43.43656 74.75129,-43.43656 41.284,0 74.75129,19.44721 74.75129,43.43656 z"
       sodipodi:ry="43.436558"
       sodipodi:rx="74.751289"
       sodipodi:cy="998.8241"
       sodipodi:cx="234.35539"
       id="path2989"
       style="fill:#e7e7e7;fill-opacity:1;stroke:#000b00;stroke-width:3;stroke-miterlimit:4;stroke-opacity:1;stroke-dasharray:none"
       sodipodi:type="arc" />
    <path
       sodipodi:nodetypes="cccccc"
       inkscape:connector-curvature="0"
       d="m 428.4062,445.86455 c 0,0 -40.77921,34.60961 -84.34773,32.32489 0,0 -41.57929,3.05982 -81.31728,-32.32489 L 101.11678,888.31137 c 105.73193,-7.66711 316.87351,138.64213 499.01536,6.06091 z"
       style="fill:#6267e8;fill-opacity:1;stroke:#000000;stroke-width:1px;stroke-linecap:butt;stroke-linejoin:miter;stroke-opacity:1"
       id="path2987" />
    <path
       transform="translate(-48.890872,-13.538085)"
       d="m 604.07124,1008.9256 c 0,25.1051 -33.4673,45.4569 -74.75129,45.4569 -41.284,0 -74.75129,-20.3518 -74.75129,-45.4569 0,-25.10513 33.46729,-45.45687 74.75129,-45.45687 41.28399,0 74.75129,20.35174 74.75129,45.45687 z"
       sodipodi:ry="45.456863"
       sodipodi:rx="74.751289"
       sodipodi:cy="1008.9256"
       sodipodi:cx="529.31995"
       id="path2991"
       style="fill:#e7e7e7;fill-opacity:1;stroke:#000b00;stroke-width:3;stroke-miterlimit:4;stroke-opacity:1;stroke-dasharray:none"
       sodipodi:type="arc" />
    <path
       transform="matrix(0.86199953,0.50690908,-0.50690908,0.86199953,109.23671,-89.31211)"
       d="m 618.21336,123.02184 c 0,35.70508 -92.26118,64.64977 -206.07112,64.64977 -113.80994,0 -206.07112,-28.94469 -206.07112,-64.64977 0,-35.705076 92.26118,-64.649762 206.07112,-64.649762 113.80994,0 206.07112,28.944686 206.07112,64.649762 z"
       sodipodi:ry="64.649765"
       sodipodi:rx="206.07112"
       sodipodi:cy="123.02184"
       sodipodi:cx="412.14224"
       id="path2993"
       style="fill:#6267e8;fill-opacity:1;stroke:#000b00;stroke-width:3;stroke-miterlimit:4;stroke-opacity:1;stroke-dasharray:none"
       sodipodi:type="arc" />
    <path
       inkscape:connector-curvature="0"
       id="path2995"
       d="M 543.17491,2.5703886 489.26046,286.74015 C 388.93676,276.91272 355.93617,243.735 332.25428,186.05921 363.59671,122.73897 582.10636,-135.73873 543.17491,2.5703886 z"
       style="fill:#6267e8;fill-opacity:1;stroke:#000000;stroke-width:3;stroke-linecap:butt;stroke-linejoin:miter;stroke-miterlimit:4;stroke-opacity:1;stroke-dasharray:none"
       sodipodi:nodetypes="cccc" />
    <g
       style="fill:none;stroke:#ffff09;stroke-opacity:1"
       id="g4117"
       transform="translate(-10,40)">
      <path
         sodipodi:type="star"
         style="fill:none;stroke:#ffff09;stroke-width:3;stroke-miterlimit:4;stroke-opacity:1;stroke-dasharray:none"
         id="path4085"
         sodipodi:sides="5"
         sodipodi:cx="291.42856"
         sodipodi:cy="496.64789"
         sodipodi:r1="14.142136"
         sodipodi:r2="7.0710678"
         sodipodi:arg1="0.78539816"
         sodipodi:arg2="1.4137167"
         inkscape:flatsided="false"
         inkscape:rounded="0"
         inkscape:randomized="0"
         d="m 301.42856,506.64789 -8.89384,-3.01599 -7.52656,5.61672 0.12003,-9.39053 -7.66765,-5.42252 8.96802,-2.78768 2.78768,-8.96802 5.42252,7.66765 9.39053,-0.12003 -5.61672,7.52656 z"
         inkscape:transform-center-x="0.68364368"
         inkscape:transform-center-y="-0.68364368" />
      <path
         sodipodi:type="star"
         style="fill:none;stroke:#ffff09;stroke-width:3;stroke-miterlimit:4;stroke-opacity:1;stroke-dasharray:none"
         id="path4087"
         sodipodi:sides="5"
         sodipodi:cx="350"
         sodipodi:cy="520.93359"
         sodipodi:r1="17.437937"
         sodipodi:r2="8.7189684"
         sodipodi:arg1="1.0471976"
         sodipodi:arg2="1.6755161"
         inkscape:flatsided="false"
         inkscape:rounded="0"
         inkscape:randomized="0"
         d="m 358.71897,536.03529 -9.63035,-6.43049 -10.75688,4.28771 3.13982,-11.14614 -7.40191,-8.90542 11.57087,-0.4582 6.18224,-9.79157 4.01137,10.86296 11.22275,2.8539 -9.09171,7.17188 z"
         inkscape:transform-center-x="-0.56326404"
         inkscape:transform-center-y="-1.1203568" />
      <path
         sodipodi:type="star"
         style="fill:none;stroke:#ffff09;stroke-width:3;stroke-miterlimit:4;stroke-opacity:1;stroke-dasharray:none"
         id="path4089"
         sodipodi:sides="5"
         sodipodi:cx="344.28571"
         sodipodi:cy="579.50507"
         sodipodi:r1="27.737841"
         sodipodi:r2="13.868919"
         sodipodi:arg1="1.8325957"
         sodipodi:arg2="2.4609142"
         inkscape:flatsided="false"
         inkscape:rounded="0"
         inkscape:randomized="0"
         d="m 337.10662,606.29776 -3.59909,-18.0647 -16.92165,-7.27631 16.06837,-9.00524 1.6911,-18.34195 13.5299,12.49916 17.96681,-4.05964 -7.70644,16.73014 9.413,15.83296 -18.29274,-2.15936 z"
         inkscape:transform-center-x="2.2184581"
         inkscape:transform-center-y="0.44859576" />
      <path
         sodipodi:type="star"
         style="fill:none;stroke:#ffff09;stroke-width:3;stroke-miterlimit:4;stroke-opacity:1;stroke-dasharray:none"
         id="path4091"
         sodipodi:sides="5"
         sodipodi:cx="301.42856"
         sodipodi:cy="616.64789"
         sodipodi:r1="20.303816"
         sodipodi:r2="10.151907"
         sodipodi:arg1="2.3561945"
         sodipodi:arg2="2.984513"
         inkscape:flatsided="false"
         inkscape:rounded="0"
         inkscape:randomized="0"
         d="m 287.07159,631.00485 4.33005,-12.76885 -8.06391,-10.80585 13.48196,0.17232 7.78509,-11.00842 4.00226,12.87536 12.87536,4.00226 -11.00843,7.78509 0.17233,13.48196 -10.80585,-8.06391 z"
         inkscape:transform-center-x="-0.98150485"
         inkscape:transform-center-y="-0.98150485" />
      <path
         sodipodi:type="star"
         style="fill:none;stroke:#ffff09;stroke-width:3;stroke-miterlimit:4;stroke-opacity:1;stroke-dasharray:none"
         id="path4093"
         sodipodi:sides="5"
         sodipodi:cx="237.14285"
         sodipodi:cy="673.79077"
         sodipodi:r1="10.400157"
         sodipodi:r2="5.200078"
         sodipodi:arg1="1.8325957"
         sodipodi:arg2="2.4609142"
         inkscape:flatsided="false"
         inkscape:rounded="0"
         inkscape:randomized="0"
         d="m 234.45109,683.83655 -1.34946,-6.77326 -6.34468,-2.72822 6.02475,-3.37646 0.63407,-6.87722 5.07296,4.68649 6.73656,-1.52214 -2.88949,6.27288 3.52936,5.93648 -6.85877,-0.80964 z"
         inkscape:transform-center-x="0.83179918"
         inkscape:transform-center-y="0.16819862" />
      <path
         sodipodi:type="star"
         style="fill:none;stroke:#ffff09;stroke-width:3;stroke-miterlimit:4;stroke-opacity:1;stroke-dasharray:none"
         id="path4095"
         sodipodi:sides="5"
         sodipodi:cx="208.57143"
         sodipodi:cy="765.21936"
         sodipodi:r1="44.858051"
         sodipodi:r2="22.429026"
         sodipodi:arg1="0.52359878"
         sodipodi:arg2="1.1519173"
         inkscape:flatsided="false"
         inkscape:rounded="0"
         inkscape:randomized="0"
         d="m 247.41964,787.64839 -29.72551,-1.9391 -18.44922,23.38787 -7.3415,-28.86985 -27.9443,-10.31901 25.18821,-15.90345 1.17869,-29.76536 22.90867,19.04097 28.67278,-8.07699 -11.02988,27.67142 z"
         inkscape:transform-center-x="2.8820512"
         inkscape:transform-center-y="1.4489632" />
      <path
         sodipodi:type="star"
         style="fill:none;stroke:#ffff09;stroke-width:3;stroke-miterlimit:4;stroke-opacity:1;stroke-dasharray:none"
         id="path4097"
         sodipodi:sides="5"
         sodipodi:cx="324.28571"
         sodipodi:cy="802.36218"
         sodipodi:r1="27.47912"
         sodipodi:r2="13.739559"
         sodipodi:arg1="0.26179939"
         sodipodi:arg2="0.89011792"
         inkscape:flatsided="false"
         inkscape:rounded="0"
         inkscape:randomized="0"
         d="m 350.8285,809.4743 -17.89621,3.56553 -7.20844,16.76381 -8.92124,-15.91849 -18.17087,-1.67533 12.38257,-13.4037 -4.02178,-17.79922 16.5741,7.63455 15.68528,-9.3252 -2.13922,18.12211 z"
         inkscape:transform-center-x="-0.44441156"
         inkscape:transform-center-y="2.1977658" />
      <path
         sodipodi:type="star"
         style="fill:none;stroke:#ffff09;stroke-width:3;stroke-miterlimit:4;stroke-opacity:1;stroke-dasharray:none"
         id="path4099"
         sodipodi:sides="5"
         sodipodi:cx="405.71429"
         sodipodi:cy="728.07648"
         sodipodi:r1="8.5714283"
         sodipodi:r2="4.2857141"
         sodipodi:arg1="-1.5707963"
         sodipodi:arg2="-0.9424778"
         inkscape:flatsided="false"
         inkscape:rounded="0"
         inkscape:randomized="0"
         d="m 405.71429,719.50505 2.51908,5.10421 5.63284,0.8185 -4.07596,3.97308 0.9622,5.61007 -5.03816,-2.64872 -5.03815,2.64872 0.9622,-5.61007 -4.07596,-3.97308 5.63283,-0.8185 z"
         inkscape:transform-center-y="-0.8184986" />
      <path
         sodipodi:type="star"
         style="fill:none;stroke:#ffff09;stroke-width:3;stroke-miterlimit:4;stroke-opacity:1;stroke-dasharray:none"
         id="path4101"
         sodipodi:sides="5"
         sodipodi:cx="420"
         sodipodi:cy="605.21936"
         sodipodi:r1="17.261494"
         sodipodi:r2="8.6307468"
         sodipodi:arg1="-1.0471976"
         sodipodi:arg2="-0.41887902"
         inkscape:flatsided="false"
         inkscape:rounded="0"
         inkscape:randomized="0"
         d="m 428.63075,590.27047 -0.74617,11.43845 8.99971,7.09931 -11.10919,2.82503 -3.97078,10.75303 -6.11969,-9.69248 -11.45379,-0.45357 7.32702,-8.81531 -3.10805,-11.03336 10.64803,4.24432 z"
         inkscape:transform-center-x="-0.55756476"
         inkscape:transform-center-y="1.1090207" />
      <path
         sodipodi:type="star"
         style="fill:none;stroke:#ffff09;stroke-width:3;stroke-miterlimit:4;stroke-opacity:1;stroke-dasharray:none"
         id="path4103"
         sodipodi:sides="5"
         sodipodi:cx="421.42856"
         sodipodi:cy="498.07648"
         sodipodi:r1="25.555063"
         sodipodi:r2="12.777531"
         sodipodi:arg1="1.0471976"
         sodipodi:arg2="1.6755161"
         inkscape:flatsided="false"
         inkscape:rounded="0"
         inkscape:randomized="0"
         d="m 434.20609,520.20781 -14.11315,-9.4238 -15.76406,6.28358 4.60137,-16.33452 -10.8474,-13.05077 16.95694,-0.67149 9.06,-14.3494 5.87861,15.91951 16.44678,4.18236 -13.32377,10.51029 z"
         inkscape:transform-center-x="-0.82545591"
         inkscape:transform-center-y="-1.6418679" />
      <path
         sodipodi:type="star"
         style="fill:none;stroke:#ffff09;stroke-width:3;stroke-miterlimit:4;stroke-opacity:1;stroke-dasharray:none"
         id="path4105"
         sodipodi:sides="5"
         sodipodi:cx="477.14285"
         sodipodi:cy="615.21936"
         sodipodi:r1="9.035079"
         sodipodi:r2="4.5175395"
         sodipodi:arg1="1.8325957"
         sodipodi:arg2="2.4609142"
         inkscape:flatsided="false"
         inkscape:rounded="0"
         inkscape:randomized="0"
         d="m 474.8044,623.94658 -1.17233,-5.88424 -5.51191,-2.37012 5.23397,-2.93329 0.55084,-5.97454 4.40711,4.07136 5.85235,-1.32235 -2.51023,5.44953 3.06611,5.15729 -5.95852,-0.70337 z"
         inkscape:transform-center-x="0.72262095"
         inkscape:transform-center-y="0.14612162" />
      <path
         sodipodi:type="star"
         style="fill:none;stroke:#ffff09;stroke-width:3;stroke-miterlimit:4;stroke-opacity:1;stroke-dasharray:none"
         id="path4107"
         sodipodi:sides="5"
         sodipodi:cx="490"
         sodipodi:cy="730.93359"
         sodipodi:r1="21.237242"
         sodipodi:r2="10.61862"
         sodipodi:arg1="2.3561945"
         sodipodi:arg2="2.984513"
         inkscape:flatsided="false"
         inkscape:rounded="0"
         inkscape:randomized="0"
         d="m 474.983,745.95059 4.52911,-13.35588 -8.43463,-11.30262 14.10177,0.18024 8.14299,-11.51451 4.18626,13.46728 13.46728,4.18626 -11.51452,8.14299 0.18025,14.10176 -11.30263,-8.43463 z"
         inkscape:transform-center-x="-1.0266275"
         inkscape:transform-center-y="-1.0266275" />
      <path
         sodipodi:type="star"
         style="fill:none;stroke:#ffff09;stroke-width:3;stroke-miterlimit:4;stroke-opacity:1;stroke-dasharray:none"
         id="path4109"
         sodipodi:sides="5"
         sodipodi:cx="477.14285"
         sodipodi:cy="832.36218"
         sodipodi:r1="6.3887658"
         sodipodi:r2="3.1943827"
         sodipodi:arg1="2.6179939"
         sodipodi:arg2="3.2463124"
         inkscape:flatsided="false"
         inkscape:rounded="0"
         inkscape:randomized="0"
         d="m 471.61002,835.55657 2.35595,-3.52829 -1.5709,-3.94102 4.08363,1.15034 3.2627,-2.71185 0.16787,4.23924 3.58735,2.265 -3.97988,1.46965 -1.04559,4.1117 -2.62757,-3.33094 z"
         inkscape:transform-center-x="-0.41046699"
         inkscape:transform-center-y="0.20636398" />
      <path
         sodipodi:type="star"
         style="fill:none;stroke:#ffff09;stroke-width:3;stroke-miterlimit:4;stroke-opacity:1;stroke-dasharray:none"
         id="path4111"
         sodipodi:sides="5"
         sodipodi:cx="415.71429"
         sodipodi:cy="799.50507"
         sodipodi:r1="19.059521"
         sodipodi:r2="9.5297594"
         sodipodi:arg1="-1.8325957"
         sodipodi:arg2="-1.2042772"
         inkscape:flatsided="false"
         inkscape:rounded="0"
         inkscape:randomized="0"
         d="m 410.78133,781.09498 8.34812,9.51329 12.5695,-1.48376 -6.46796,10.8793 5.29533,11.4958 -12.34554,-2.7895 -9.29681,8.58855 -1.162,-12.60331 -11.04108,-6.18778 11.62739,-4.99978 z"
         inkscape:transform-center-x="1.5243706"
         inkscape:transform-center-y="-0.3082439" />
      <path
         sodipodi:type="star"
         style="fill:none;stroke:#ffff09;stroke-width:3;stroke-miterlimit:4;stroke-opacity:1;stroke-dasharray:none"
         id="path4113"
         sodipodi:sides="5"
         sodipodi:cx="535.71429"
         sodipodi:cy="798.07648"
         sodipodi:r1="25.714287"
         sodipodi:r2="12.857142"
         sodipodi:arg1="1.5707963"
         sodipodi:arg2="2.1991149"
         inkscape:flatsided="false"
         inkscape:rounded="0"
         inkscape:randomized="0"
         d="m 535.7143,823.79076 -7.55724,-15.31264 -16.89851,-2.45549 12.22788,-11.91923 -2.88661,-16.83022 15.11447,7.94615 15.11448,-7.94615 -2.88661,16.83022 12.22787,11.91923 -16.8985,2.45549 z"
         inkscape:transform-center-y="2.4554958" />
      <path
         sodipodi:type="star"
         style="fill:none;stroke:#ffff09;stroke-width:3;stroke-miterlimit:4;stroke-opacity:1;stroke-dasharray:none"
         id="path4115"
         sodipodi:sides="5"
         sodipodi:cx="344.28571"
         sodipodi:cy="692.36218"
         sodipodi:r1="36.867107"
         sodipodi:r2="18.433554"
         sodipodi:arg1="2.0943951"
         sodipodi:arg2="2.7227136"
         inkscape:flatsided="false"
         inkscape:rounded="0"
         inkscape:randomized="0"
         d="m 325.85215,724.29003 1.59367,-24.43025 -19.22159,-15.1627 23.72702,-6.0337 8.48079,-22.96634 13.07044,20.70122 24.463,0.96872 -15.64904,18.82775 6.63818,23.56505 -22.74208,-9.06502 z"
         inkscape:transform-center-x="1.1908471"
         inkscape:transform-center-y="-2.368647" />
    </g>
    <path
       transform="matrix(0.67798262,0,0,1.0832862,236.84457,-512.73583)"
       d="m 604.07124,1008.9256 c 0,25.1051 -33.4673,45.4569 -74.75129,45.4569 -41.284,0 -74.75129,-20.3518 -74.75129,-45.4569 0,-25.10513 33.46729,-45.45687 74.75129,-45.45687 41.28399,0 74.75129,20.35174 74.75129,45.45687 z"
       sodipodi:ry="45.456863"
       sodipodi:rx="74.751289"
       sodipodi:cy="1008.9256"
       sodipodi:cx="529.31995"
       id="path2991-1"
       style="fill:#e7e7e7;fill-opacity:1;stroke:#000b00;stroke-width:3;stroke-miterlimit:4;stroke-opacity:1;stroke-dasharray:none"
       sodipodi:type="arc" />
    <rect
       y="367.53885"
       x="506.40814"
       height="200.00957"
       width="119.7891"
       id="rect2997"
       style="fill:none;stroke:#000b00;stroke-width:3.2915957;stroke-miterlimit:4;stroke-opacity:1;stroke-dasharray:none" />
    <path
       transform="matrix(0.67798262,0,0,1.0832862,129.70171,-634.8787)"
       d="m 604.07124,1008.9256 c 0,25.1051 -33.4673,45.4569 -74.75129,45.4569 -41.284,0 -74.75129,-20.3518 -74.75129,-45.4569 0,-25.10513 33.46729,-45.45687 74.75129,-45.45687 41.28399,0 74.75129,20.35174 74.75129,45.45687 z"
       sodipodi:ry="45.456863"
       sodipodi:rx="74.751289"
       sodipodi:cy="1008.9256"
       sodipodi:cx="529.31995"
       id="path2991-1-5"
       style="fill:#e7e7e7;fill-opacity:1;stroke:#000b00;stroke-width:3;stroke-miterlimit:4;stroke-opacity:1;stroke-dasharray:none"
       sodipodi:type="arc" />
    <path
       inkscape:connector-curvature="0"
       id="path4171"
       d="m 460,400.93361 c 5.71429,7.14286 84.28571,87.14286 84.28571,87.14286"
       style="fill:none;stroke:#000000;stroke-width:10;stroke-linecap:butt;stroke-linejoin:miter;stroke-miterlimit:4;stroke-opacity:1;stroke-dasharray:none" />
    <path
       inkscape:connector-curvature="0"
       id="path4173"
       d="m 515.71429,393.98885 c 2.56762,1.83688 8.38852,-4e-5 11.42857,2.18273 1.033,1.45497 1.81302,4.13256 2.85714,2.46371 1.40083,1.69248 2.85714,-0.16043 4.28571,-0.0554 2.38096,0.15784 4.76191,-3.4262 7.14286,-2.97519 5.71429,0.96546 11.42857,0.50421 17.14286,1.72082 3.80952,1.10447 7.61905,1.84491 11.42857,-0.15293 0.95238,-0.58352 1.90476,1.71912 2.85714,1.47208 0.95238,-0.50135 1.9332,-3.0266 2.85715,-2.66206 1.033,1.16496 1.82414,0.83561 2.85714,1.10994 1.05271,1.67979 6.30589,2.18638 7.14286,-0.22928 0.60233,-0.61883 0.82623,-2.87365 1.42857,-3.93392 0.43476,-0.79429 3.64234,-1.78708 4.28571,0.0968 3.33334,-1.96351 6.66667,2.95594 10,2.53853"
       style="fill:none;stroke:#000000;stroke-width:1px;stroke-linecap:butt;stroke-linejoin:miter;stroke-opacity:1" />
    <path
       inkscape:connector-curvature="0"
       id="path4175"
       d="m 531.42857,417.42063 c 12.85714,1.89518 25.71429,-1.76072 38.57143,-2.74933 2.85714,-1.83513 5.71429,2.09971 8.57143,3.91685 0.47619,1.28201 0.95238,-0.41898 1.42857,-1.68183 0.47619,0.9802 1.00265,-0.45442 1.42857,-1.62934 0.60234,-0.43914 0.82623,3.92301 1.42857,4.78298 0.88719,0.9727 7.65604,-2.28487 8.57143,-1.29845 0.60234,-1.59927 0.7897,-1.88072 1.42857,-1.23941 0.76801,-0.0156 4.50479,1.91873 5.71429,-0.002"
       style="fill:none;stroke:#000000;stroke-width:1px;stroke-linecap:butt;stroke-linejoin:miter;stroke-opacity:1" />
    <path
       inkscape:connector-curvature="0"
       id="path4177"
       d="m 552.85714,451.46144 c 4.28572,-1.5159 8.57143,-0.56911 12.85715,-0.47392 0.95238,-0.20946 1.93319,3.47284 2.85714,1.82214 1.033,-1.30171 1.84699,-3.83754 2.85714,-3.79383 0.9256,1.67424 5.97329,4.15013 7.14286,2.39272 0.64337,-1.20699 3.85095,-2.15581 4.28571,-0.49725 0.60234,2.29297 0.82624,-1.12605 1.42857,1.17314 0.89789,0.37468 4.8164,1.14072 5.71429,1.64839 0.60234,2.24668 0.82623,-8.2e-4 1.42857,-1.50546 0.43476,-1.75855 3.64235,0.98697 4.28572,-0.31778 2.85714,1.94489 5.71428,1.09942 8.57142,0.30623"
       style="fill:none;stroke:#000000;stroke-width:1px;stroke-linecap:butt;stroke-linejoin:miter;stroke-opacity:1" />
    <path
       inkscape:connector-curvature="0"
       id="path4179"
       d="m 560,478.6418 c 1.90476,-1.49379 3.77762,0.4449 5.71429,-1.4764 1.40913,-2.23344 2.85714,3.17318 4.28571,2.54238 2.85714,0.5726 5.71429,-0.25037 8.57143,0.01 0.95238,1.33325 1.90476,-2.19629 2.85714,-0.19941 0.95238,-1.15341 1.95364,2.19269 2.85714,0.5504 0.63888,-1.73166 0.82624,-0.32183 1.42858,-1.9789 0.53078,0.18091 8.78124,3.08595 10,1.8882 0.47619,-0.89812 1.00265,-2.28117 1.42857,-1.10517 0.60234,1.23989 0.82623,-2.14222 1.42857,-2.79579 0.43476,-1.39563 3.64235,4.23057 4.28571,3.75402"
       style="fill:none;stroke:#000000;stroke-width:1px;stroke-linecap:butt;stroke-linejoin:miter;stroke-opacity:1" />
    <path
       inkscape:connector-curvature="0"
       id="path4181"
       d="m 538.57143,508.93509 c 13.33333,0.71124 26.66667,1.93027 40,0.13352 2.85714,-1.68698 5.71428,-1.08427 8.57143,-0.10509 0.95238,0.24422 1.90476,3.522 2.85714,1.55429 0.95238,0.84406 1.95364,1.08667 2.85714,1.58146 0.63888,0.18947 0.7897,-2.96984 1.42857,-1.7328 0.97186,-1.24723 6.38538,1.67005 7.14286,2.09925 0.60234,-1.69795 0.82623,1.09259 1.42857,0.50221 0.51662,-1.6454 6.14923,3.26351 7.14286,2.77879"
       style="fill:none;stroke:#000000;stroke-width:1px;stroke-linecap:butt;stroke-linejoin:miter;stroke-opacity:1" />
    <path
       inkscape:connector-curvature="0"
       id="path4183"
       d="m 520,551.31137 c 1.90476,0.38531 3.80952,-0.90009 5.71429,-2.84307 0.47619,1.15054 0.86824,-4.29885 1.42857,-4.85597 0.88596,-2.46355 1.84699,-0.54035 2.85714,-1.17101 0.45175,-1.20347 0.95238,2.49627 1.42857,2.52183 1.42857,-1.88102 2.88489,1.9596 4.28572,0.57762 1.04411,1.60014 1.84699,-5.19122 2.85714,-3.60134 0.45175,-1.84754 0.95238,2.3229 1.42857,2.41729 1.42857,-1.99986 2.85714,-0.87933 4.28571,-1.87205 2.38096,-1.75231 4.76191,3.36254 7.14286,1.68052 4.76191,-1.66129 9.52381,-1.71107 14.28572,-3.24618 1.4856,-1.99412 7.44769,5.15315 8.57142,3.44169 1.03301,2.15427 1.82415,-4.55709 2.85715,-2.33039 1.18094,-0.46975 7.84543,2.36683 8.57143,0.7355 0.60233,-1.18599 0.82623,0.0743 1.42857,0.45741 0.90124,2.19456 6.24161,4.54061 7.14285,3.93627 0.60234,0.92382 0.82624,-0.22968 1.42858,0.15846 0.37563,1.44186 4.96725,1.22965 5.71428,0.92285"
       style="fill:none;stroke:#000000;stroke-width:1px;stroke-linecap:butt;stroke-linejoin:miter;stroke-opacity:1" />
    <path
       style="fill:#000000;fill-opacity:0.43835617;stroke:none"
       d="m 490.42906,280.31802 c 4.68261,1.99225 86.36804,15.43991 86.36804,15.43991 l -31.79283,-43.67879 -40.67275,-34.23612 -4.53724,6.19407"
       id="path4864"
       inkscape:connector-curvature="0"
       sodipodi:nodetypes="ccccc" />
  </g>
</svg>
